<svg enable-background="new 0 0 110 110" height="30" viewBox="0 0 110 110"  xmlns="http://www.w3.org/2000/svg"><path d="m93.5541 42.7540207-6.168251 36.533699h-64.766634l-6.168251-36.533699 25.9580555 14.8744354 12.5935135-26.6174126 12.5935134 26.6174126z" fill="#fcd462"/><path d="m87.2602005 84.7262268h-64.5153389c-1.6307659 0-2.9527607-1.3219986-2.9527607-2.9527588v-.2627258c0-1.6307678 1.3219948-2.9527664 2.9527607-2.9527664h64.5153351c1.6307678 0 2.9527664 1.3219986 2.9527664 2.9527664v.2627258c.0000038 1.6307602-1.3219948 2.9527588-2.9527626 2.9527588z" fill="#f7be56"/><g fill="#d6b24e"><path d="m22.1900024 42.573761c0 1.4099731-.5 2.7000122-1.3499756 3.6900024-1.0500488 1.25-2.6300049 2.0499878-4.3900146 2.0499878-3.1700439 0-5.7399902-2.5700073-5.7399902-5.7399902 0-2.1900024 1.2299805-4.1000366 3.0299072-5.0599976.8100586-.4400024 1.7299805-.6799927 2.710083-.6799927 3.170044.0000001 5.7399902 2.5699463 5.7399902 5.7399903z"/><path d="m60.7399292 31.0137615c0 1.3899555-.4899902 2.6599751-1.3099365 3.6499653-.0100098.0100098-.0100098.0200195-.0200195.0200195-1.0499268 1.2700195-2.6400146 2.0700073-4.4100342 2.0700073-3.1699219 0-5.7399902-2.5700073-5.7399902-5.7399921 0-2.1700439 1.2099609-4.0599976 2.9899902-5.0300293 0-.0100098.0100098-.0199585.0200195-.0199585.8100586-.4400024 1.7399902-.6900024 2.7299805-.6900024 3.1700439 0 5.7399902 2.5699463 5.7399902 5.7399902z"/><path d="m99.289978 42.573761c0 1.4099731-.5 2.7000122-1.3499756 3.6900024-1.0499268 1.25-2.6300049 2.0499878-4.3900146 2.0499878-3.1699219 0-5.7399902-2.5700073-5.7399902-5.7399902 0-2.1900024 1.2299805-4.1000366 3.0300293-5.0599976.8100586-.4400024 1.7299805-.6799927 2.7099609-.6799927 3.1699219.0000001 5.7399902 2.5699463 5.7399902 5.7399903z"/></g><g fill="#f7be56"><path d="m16.4500122 36.8337708c-.9801025 0-1.9000244.2399902-2.710083.6799927-.8498535 1-1.3498535 2.289978-1.3498535 3.6900024 0 3.1699829 2.5699463 5.7399902 5.7399902 5.7399902.9799805 0 1.8999023-.2399902 2.7099609-.6799927.8499756-.9899902 1.3499756-2.2800293 1.3499756-3.6900024 0-3.170044-2.5699462-5.7399902-5.7399902-5.7399902z"/><path d="m54.999939 25.2737713c-.9899902 0-1.9199219.25-2.7299805.6900024-.0100098 0-.0200195.0099487-.0200195.0199585-.8199463.9899902-1.3099365 2.2600098-1.3099365 3.6500244 0 3.1699848 2.5699463 5.7399921 5.7399902 5.7399921.9899902 0 1.9200439-.25 2.7299805-.6900024.0100098 0 .0100098-.0100098.0200195-.0200195.8199463-.9899902 1.3099365-2.2600098 1.3099365-3.6499653 0-3.1700439-2.5699463-5.7399902-5.7399902-5.7399902z"/><path d="m93.5499878 36.8337708c-.9799805 0-1.8999023.2399902-2.7099609.6799927-.8500977 1-1.3500977 2.289978-1.3500977 3.6900024 0 3.1699829 2.5700684 5.7399902 5.7399902 5.7399902.9801025 0 1.9001465-.2399902 2.710083-.6799927.8499756-.9899902 1.3499756-2.2800293 1.3499756-3.6900024 0-3.170044-2.5700683-5.7399902-5.7399902-5.7399902z"/></g><path d="m55.002533 54.1626358 2.9951553 6.0688477 6.6973724.9731826-4.8462639 4.723938 1.1440468 6.670311-5.9903106-3.149292-5.9903107 3.149292 1.1440468-6.670311-4.8462639-4.723938 6.6973724-.9731826z" fill="#d6b24e"/></svg>